# xmcd
#
# Track frame offsets: 
#        182
#        18052
#        38347
#
# Disc length: 669 seconds
#
# Revision: 4
# Processed by: cddbd v1.5.2PL0 Copyright (c) Steve Scherf et al.
# Submitted via: ExactAudioCopyFreeDBPlugin 1.0
#
DISCID=0f029b03
DTITLE=Barenaked Ladies / Brian Wilson (Single)
DYEAR=1997
DGENRE=Pop-Folk
TTITLE0=Brian Wilson (2000)
TTITLE1=Break Your Heart (Edit)
TTITLE2=Back
EXTD=
EXTT0=
EXTT1=
EXTT2=
PLAYORDER=
